<svg version="1.1" id="Layer_1" xmlns="http://www.w3.org/2000/svg" x="0" y="0" viewBox="0 0 514 260" xml:space="preserve"><style>.st3{fill:#231f20}</style><path d="M390.9 0H20c11.1 0 20.2 9.1 20.2 20.2v130h.2c-.2 1-.3 2-.3 3v86.7c0 11.1 9.1 20.2 20.2 20.2h393.3c11.1 0 20.2-9.1 20.2-20.2v-86.7c0-1-.1-2-.3-3h.3v-130C473.8 9.1 482.9 0 494 0H390.9z" fill="#fff"/><path fill="#a7a9ac" d="M433.1 142.5H80v-1.3h353.1v1.3z"/><path class="st3" d="M291.7 42.1l-14.1 55h-.2l-17.4-55h-17.1l-17.5 53.6h-.2l-13.3-53.6h-28.5v50.7c0 2.6-.4 5-1.2 7.2-.8 2.2-2 4.1-3.5 5.7-1.5 1.6-3.3 2.9-5.3 3.8-2.1.9-4.3 1.4-6.7 1.4-2.4 0-4.7-.5-6.8-1.4-2.1-.9-3.9-2.2-5.4-3.8-1.5-1.6-2.7-3.5-3.5-5.7-.8-2.2-1.2-4.6-1.2-7.2V42.1h-18.4v51.4c0 5 .7 9.5 2.2 13.7 1.5 4.2 3.7 7.8 6.7 10.9 3 3.1 6.6 5.5 11 7.2 4.4 1.7 9.5 2.6 15.4 2.6 5.7 0 10.8-.9 15.2-2.6 4.4-1.7 8.1-4.1 11-7.2 3-3.1 5.2-6.7 6.7-10.9s2.2-8.7 2.2-13.7V75.8l14.8 50h15.8l18.4-57.9h.2l18.4 57.9h16.4l24.4-83.6h-18.5v-.1z"/><path d="M311.6 83.9c0 3.9.6 7.5 1.8 10.8 1.2 3.3 3 6.1 5.3 8.5 2.3 2.4 5 4.3 8.2 5.6 3.2 1.3 6.8 2 10.7 2 3.9 0 7.5-.7 10.7-2 3.2-1.3 5.9-3.2 8.2-5.6 2.3-2.4 4-5.2 5.3-8.5 1.2-3.3 1.8-6.9 1.8-10.8 0-3.9-.6-7.4-1.8-10.7-1.2-3.3-3-6.2-5.3-8.6-2.3-2.4-5-4.3-8.2-5.6-3.2-1.3-6.8-2-10.7-2-3.9 0-7.5.7-10.7 2-3.2 1.3-5.9 3.2-8.2 5.6-2.3 2.4-4 5.3-5.3 8.6-1.1 3.3-1.8 6.9-1.8 10.7zm-19.1 0c0-6.7 1.1-12.8 3.4-18.2 2.2-5.4 5.4-10.1 9.4-13.9 4-3.8 8.8-6.8 14.3-8.8 5.5-2 11.5-3.1 18.1-3.1 6.5 0 12.6 1 18.1 3.1 5.5 2 10.3 5 14.3 8.8 4 3.8 7.1 8.4 9.4 13.9 2.2 5.4 3.4 11.5 3.4 18.2 0 6.7-1.1 12.8-3.4 18.2-2.2 5.4-5.4 10.1-9.4 13.9-4 3.8-8.8 6.8-14.3 8.8-5.5 2-11.5 3.1-18.1 3.1-6.5 0-12.6-1-18.1-3.1-5.5-2-10.3-5-14.3-8.8-4-3.8-7.1-8.4-9.4-13.9-2.3-5.4-3.4-11.5-3.4-18.2z" fill="#ffcf01"/><path class="st3" d="M89.9 164.4c0 .6-.1 1.2-.2 1.8-.1.6-.4 1.2-.8 1.7s-.9 1-1.5 1.3c-.6.3-1.5.5-2.5.5s-1.8-.2-2.5-.5c-.6-.4-1.1-.8-1.5-1.3-.4-.5-.6-1.1-.8-1.7-.1-.6-.2-1.2-.2-1.8v-8.5h1.4v8.3c0 .6.1 1.2.2 1.7s.3.9.5 1.2c.2.3.4.6.7.8.3.2.5.3.8.4.3.1.5.2.8.2h1.2c.2 0 .5-.1.8-.2.3-.1.5-.2.8-.4.3-.2.5-.4.7-.8.2-.3.4-.7.5-1.2.1-.5.2-1 .2-1.7v-8.3h1.4v8.5zm13.6 3v-11.5h1.4v13.5h-1.7l-8.1-11.5v11.5h-1.4v-13.5h1.7l8.1 11.5zm6.7 2h-1.3v-13.5h1.3v13.5zm7.9-2h.1l4.4-11.5h1.5l-5.3 13.5h-1.3l-5.2-13.5h1.6l4.2 11.5zm9.5.8h7.2v1.2h-8.6v-13.5h8.4v1.3h-7v4.6h6.5v1.3h-6.5v5.1zm11.6-6.3h2.4c.6 0 1.1-.1 1.6-.2.4-.1.8-.3 1-.5.3-.2.4-.5.6-.7.1-.3.2-.6.2-.9 0-.3-.1-.6-.2-.9-.1-.3-.3-.5-.6-.8-.3-.2-.6-.4-1-.5-.4-.1-.9-.2-1.6-.2h-2.4v4.7zm0 7.5h-1.4v-13.5h4.2c1.4 0 2.5.3 3.3.9.8.6 1.2 1.5 1.2 2.7 0 .9-.3 1.7-.9 2.4-.6.6-1.4 1-2.6 1.1l3.9 6.4h-1.7l-3.7-6.3h-2.3v6.3zm16.7-11.2c-.6-.9-1.5-1.3-2.6-1.3-.4 0-.7 0-1.1.1-.3.1-.7.2-.9.4-.3.2-.5.5-.7.8-.2.3-.2.7-.2 1.1 0 .6.2 1.1.5 1.4.3.3.8.6 1.3.8.5.2 1.1.4 1.7.6.6.2 1.2.4 1.7.7.5.3.9.7 1.3 1.1.3.5.5 1.1.5 1.9 0 .6-.1 1.2-.4 1.7-.3.5-.6.9-1 1.2-.4.3-.9.6-1.4.8-.5.2-1.1.3-1.6.3-.8 0-1.6-.2-2.4-.5-.7-.3-1.4-.8-1.9-1.5l1.3-.9c.3.5.7.9 1.2 1.2.5.3 1.1.4 1.8.4.3 0 .7-.1 1-.2.3-.1.7-.3.9-.5.3-.2.5-.5.7-.8.2-.3.3-.7.3-1.1 0-.5-.1-.9-.3-1.2-.2-.3-.5-.6-.8-.8-.3-.2-.7-.4-1.1-.5-.4-.1-.8-.3-1.3-.4-.4-.1-.9-.3-1.3-.5s-.8-.4-1.1-.7c-.3-.3-.6-.6-.8-1-.2-.4-.3-.9-.3-1.6 0-.6.1-1.2.4-1.7.2-.5.6-.9 1-1.2.4-.3.9-.6 1.4-.7s1.1-.2 1.6-.2c.8 0 1.5.1 2.1.4.6.2 1.2.7 1.7 1.3l-1.2 1.1zm5.9 11.2h-1.4v-13.5h1.4v13.5zm8.3 0h-1.4v-12.2h-4.5v-1.3h10.4v1.3h-4.5v12.2zm12.1 0h-1.3v-5.8l-5.1-7.7h1.7l4 6.4 4.1-6.4h1.7l-5.1 7.7v5.8zm23.4-6.7c0-.8-.1-1.5-.4-2.2-.3-.7-.6-1.3-1.1-1.9-.5-.5-1.1-1-1.7-1.3-.7-.3-1.5-.5-2.3-.5-.9 0-1.6.2-2.3.5-.7.3-1.3.7-1.7 1.3-.5.5-.8 1.2-1.1 1.9-.3.7-.4 1.4-.4 2.2 0 .8.1 1.5.4 2.2.3.7.6 1.3 1.1 1.9.5.5 1.1 1 1.7 1.3.7.3 1.5.5 2.3.5.9 0 1.6-.2 2.3-.5.7-.3 1.3-.7 1.7-1.3.5-.5.8-1.2 1.1-1.9.3-.7.4-1.4.4-2.2zm1.5 0c0 1-.2 2-.5 2.8-.4.9-.8 1.6-1.5 2.2-.6.6-1.4 1.1-2.2 1.5-.9.4-1.8.5-2.8.5-1 0-1.9-.2-2.8-.5-.9-.4-1.6-.9-2.2-1.5-.6-.6-1.1-1.4-1.5-2.2-.4-.9-.5-1.8-.5-2.8 0-1 .2-2 .5-2.8.4-.9.8-1.6 1.5-2.2.6-.6 1.4-1.1 2.2-1.5.9-.4 1.8-.5 2.8-.5 1 0 1.9.2 2.8.5.9.4 1.6.8 2.2 1.5.6.6 1.1 1.4 1.5 2.2.3.8.5 1.8.5 2.8zm3.9 6.7h-1.3v-13.5h8.1v1.3H211v4.6h6.3v1.3H211v6.3zm17.8-1.9l3.4-11.6h1.7l3.4 11.6 3.2-11.6h1.5l-4 13.5h-1.6l-3.4-11.5-3.4 11.5H228l-4-13.5h1.5l3.3 11.6zm16.9 1.9h-1.4v-13.5h1.4v13.5zm10.4-11.2c-.6-.9-1.5-1.3-2.6-1.3-.4 0-.7 0-1 .1-.3.1-.7.2-.9.4-.3.2-.5.5-.7.8-.2.3-.2.7-.2 1.1 0 .6.2 1.1.5 1.4.3.3.8.6 1.3.8.5.2 1.1.4 1.7.6.6.2 1.2.4 1.7.7.5.3.9.7 1.3 1.1.3.5.5 1.1.5 1.9 0 .6-.1 1.2-.4 1.7-.3.5-.6.9-1 1.2-.4.3-.9.6-1.4.8-.5.2-1.1.3-1.6.3-.8 0-1.6-.2-2.4-.5-.7-.3-1.4-.8-1.9-1.5l1.3-.9c.3.5.7.9 1.2 1.2.5.3 1.1.4 1.8.4.3 0 .7-.1 1-.2.3-.1.7-.3.9-.5.3-.2.5-.5.7-.8.2-.3.3-.7.3-1.1 0-.5-.1-.9-.3-1.2-.2-.3-.5-.6-.8-.8-.3-.2-.7-.4-1.1-.5-.4-.1-.8-.3-1.3-.4-.4-.1-.9-.3-1.3-.5s-.8-.4-1.1-.7c-.3-.3-.6-.6-.8-1-.2-.4-.3-.9-.3-1.6 0-.6.1-1.2.4-1.7.2-.5.6-.9 1-1.2.4-.3.9-.6 1.4-.7.5-.2 1.1-.2 1.6-.2.8 0 1.5.1 2.1.4.6.2 1.2.7 1.7 1.3l-1.3 1.1zm15.6 9.1c-.2.3-.5.7-.8 1-.3.3-.7.6-1.2.8-.4.2-.9.4-1.4.5-.5.1-1 .2-1.6.2-1 0-1.9-.2-2.8-.5-.9-.4-1.6-.9-2.2-1.5-.6-.6-1.1-1.4-1.5-2.2-.4-.9-.5-1.8-.5-2.8 0-1 .2-2 .5-2.8.4-.9.9-1.6 1.5-2.2.6-.6 1.4-1.1 2.2-1.5.9-.4 1.8-.5 2.8-.5.8 0 1.7.2 2.5.5s1.6.9 2.2 1.6l-1.2.9c-.1-.2-.3-.4-.6-.6-.2-.2-.5-.4-.8-.6-.3-.2-.6-.3-1-.4-.4-.1-.7-.2-1.1-.2-.9 0-1.6.2-2.3.5-.7.3-1.3.7-1.7 1.3-.5.5-.8 1.2-1.1 1.9-.3.7-.4 1.4-.4 2.2 0 .8.1 1.5.4 2.2.3.7.6 1.3 1.1 1.9.5.5 1.1 1 1.7 1.3.7.3 1.5.5 2.3.5.4 0 .7 0 1.1-.1.4-.1.7-.2 1-.3.3-.2.7-.4 1-.6.3-.3.6-.6.8-1l1.1.5zm14.3-4.6c0-.8-.1-1.5-.4-2.2-.3-.7-.6-1.3-1.1-1.9-.5-.5-1.1-1-1.7-1.3-.7-.3-1.5-.5-2.3-.5-.9 0-1.6.2-2.3.5-.7.3-1.3.7-1.7 1.3-.5.5-.8 1.2-1.1 1.9-.3.7-.4 1.4-.4 2.2 0 .8.1 1.5.4 2.2.3.7.6 1.3 1.1 1.9.5.5 1.1 1 1.7 1.3.7.3 1.5.5 2.3.5.9 0 1.6-.2 2.3-.5.7-.3 1.3-.7 1.7-1.3.5-.5.8-1.2 1.1-1.9.3-.7.4-1.4.4-2.2zm1.5 0c0 1-.2 2-.5 2.8-.4.9-.9 1.6-1.5 2.2-.6.6-1.4 1.1-2.2 1.5-.9.4-1.8.5-2.8.5-1 0-1.9-.2-2.8-.5-.9-.4-1.6-.9-2.2-1.5-.6-.6-1.1-1.4-1.5-2.2-.4-.9-.5-1.8-.5-2.8 0-1 .2-2 .5-2.8.4-.9.9-1.6 1.5-2.2.6-.6 1.4-1.1 2.2-1.5.9-.4 1.8-.5 2.8-.5 1 0 1.9.2 2.8.5.9.4 1.6.8 2.2 1.5.6.6 1.1 1.4 1.5 2.2.4.8.5 1.8.5 2.8zm12.9 4.7v-11.5h1.4v13.5h-1.7l-8.1-11.5v11.5h-1.4v-13.5h1.7l8.1 11.5zm11.8-9.2c-.6-.9-1.5-1.3-2.6-1.3-.4 0-.7 0-1 .1-.3.1-.7.2-.9.4-.3.2-.5.5-.7.8-.2.3-.2.7-.2 1.1 0 .6.2 1.1.5 1.4.3.3.8.6 1.3.8.5.2 1.1.4 1.7.6.6.2 1.2.4 1.7.7.5.3.9.7 1.3 1.1.3.5.5 1.1.5 1.9 0 .6-.1 1.2-.4 1.7-.3.5-.6.9-1 1.2-.4.3-.9.6-1.4.8-.5.2-1.1.3-1.6.3-.8 0-1.6-.2-2.4-.5-.7-.3-1.4-.8-1.9-1.5l1.3-.9c.3.5.7.9 1.2 1.2.5.3 1.1.4 1.8.4.3 0 .7-.1 1-.2.3-.1.6-.3.9-.5.3-.2.5-.5.7-.8.2-.3.3-.7.3-1.1 0-.5-.1-.9-.3-1.2-.2-.3-.5-.6-.8-.8-.3-.2-.7-.4-1.1-.5-.4-.1-.8-.3-1.3-.4-.4-.1-.9-.3-1.3-.5s-.8-.4-1.1-.7c-.3-.3-.6-.6-.8-1-.2-.4-.3-.9-.3-1.6 0-.6.1-1.2.4-1.7.2-.5.6-.9 1-1.2.4-.3.9-.6 1.4-.7.5-.2 1.1-.2 1.6-.2.8 0 1.5.1 2.1.4.6.2 1.2.7 1.7 1.3l-1.3 1.1zm6 11.2h-1.3v-13.5h1.3v13.5zm13.8-2v-11.5h1.4v13.5h-1.7l-8.1-11.5v11.5h-1.4v-13.5h1.7l8.1 11.5zm22.2-4.7c0-.8-.1-1.5-.4-2.2-.3-.7-.6-1.3-1.1-1.9-.5-.5-1.1-1-1.7-1.3-.7-.3-1.5-.5-2.3-.5-.9 0-1.6.2-2.3.5-.7.3-1.3.7-1.7 1.3-.5.5-.8 1.2-1.1 1.9-.3.7-.4 1.4-.4 2.2 0 .8.1 1.5.4 2.2.3.7.6 1.3 1.1 1.9.5.5 1.1 1 1.7 1.3.7.3 1.5.5 2.3.5.9 0 1.6-.2 2.3-.5.7-.3 1.3-.7 1.7-1.3.5-.5.8-1.2 1.1-1.9.3-.7.4-1.4.4-2.2zm1.5 0c0 1-.2 2-.5 2.8-.4.9-.9 1.6-1.5 2.2-.6.6-1.4 1.1-2.2 1.5-.9.4-1.8.5-2.8.5-1 0-1.9-.2-2.8-.5-.9-.4-1.6-.9-2.2-1.5-.6-.6-1.1-1.4-1.5-2.2-.4-.9-.5-1.8-.5-2.8 0-1 .2-2 .5-2.8.4-.9.8-1.6 1.5-2.2.6-.6 1.4-1.1 2.2-1.5.9-.4 1.8-.5 2.8-.5 1 0 1.9.2 2.8.5.9.4 1.6.8 2.2 1.5.6.6 1.1 1.4 1.5 2.2.4.8.5 1.8.5 2.8zm9.5-4.5c-.6-.9-1.5-1.3-2.6-1.3-.4 0-.7 0-1.1.1-.3.1-.7.2-.9.4-.3.2-.5.5-.7.8-.2.3-.2.7-.2 1.1 0 .6.2 1.1.5 1.4.3.3.8.6 1.3.8.5.2 1.1.4 1.7.6.6.2 1.2.4 1.7.7.5.3.9.7 1.3 1.1.3.5.5 1.1.5 1.9 0 .6-.1 1.2-.4 1.7-.3.5-.6.9-1 1.2-.4.3-.9.6-1.4.8-.5.2-1.1.3-1.6.3-.8 0-1.6-.2-2.4-.5-.7-.3-1.4-.8-1.9-1.5l1.3-.9c.3.5.7.9 1.2 1.2.5.3 1.1.4 1.8.4.3 0 .7-.1 1-.2.3-.1.6-.3.9-.5.3-.2.5-.5.7-.8.2-.3.3-.7.3-1.1 0-.5-.1-.9-.3-1.2-.2-.3-.5-.6-.8-.8-.3-.2-.7-.4-1.1-.5-.4-.1-.8-.3-1.3-.4-.4-.1-.9-.3-1.3-.5s-.8-.4-1.1-.7c-.3-.3-.6-.6-.8-1-.2-.4-.3-.9-.3-1.6 0-.6.1-1.2.4-1.7.2-.5.6-.9 1-1.2.4-.3.9-.6 1.4-.7.5-.2 1.1-.2 1.6-.2.8 0 1.5.1 2.1.4.6.2 1.2.7 1.7 1.3l-1.2 1.1zm4.5-2.3h1.4v5.9h7.4v-5.9h1.4v13.5h-1.4v-6.3h-7.4v6.3h-1.4v-13.5zm15.5 5.9h.2l6.4-5.9h1.9l-6.8 6.2 7.2 7.3h-2l-6.7-6.9h-.2v6.9h-1.4v-13.5h1.4v5.9zm22.7.9c0-.8-.1-1.5-.4-2.2-.3-.7-.6-1.3-1.1-1.9-.5-.5-1.1-1-1.7-1.3-.7-.3-1.5-.5-2.3-.5-.9 0-1.6.2-2.3.5-.7.3-1.3.7-1.7 1.3-.5.5-.8 1.2-1.1 1.9-.3.7-.4 1.4-.4 2.2 0 .8.1 1.5.4 2.2.3.7.6 1.3 1.1 1.9.5.5 1.1 1 1.7 1.3.7.3 1.5.5 2.3.5.9 0 1.6-.2 2.3-.5.7-.3 1.3-.7 1.7-1.3.5-.5.8-1.2 1.1-1.9.2-.7.4-1.4.4-2.2zm1.4 0c0 1-.2 2-.5 2.8-.4.9-.9 1.6-1.5 2.2-.6.6-1.4 1.1-2.2 1.5-.9.4-1.8.5-2.8.5-1 0-1.9-.2-2.8-.5-.9-.4-1.6-.9-2.2-1.5-.6-.6-1.1-1.4-1.5-2.2-.4-.9-.5-1.8-.5-2.8 0-1 .2-2 .5-2.8.4-.9.8-1.6 1.5-2.2.6-.6 1.4-1.1 2.2-1.5.9-.4 1.8-.5 2.8-.5 1 0 1.9.2 2.8.5.9.4 1.6.8 2.2 1.5.6.6 1.1 1.4 1.5 2.2.4.8.5 1.8.5 2.8zm9.5-4.5c-.6-.9-1.5-1.3-2.6-1.3-.4 0-.7 0-1.1.1-.3.1-.7.2-.9.4-.3.2-.5.5-.7.8-.2.3-.2.7-.2 1.1 0 .6.2 1.1.5 1.4.3.3.8.6 1.3.8.5.2 1.1.4 1.7.6.6.2 1.2.4 1.7.7.5.3.9.7 1.3 1.1.3.5.5 1.1.5 1.9 0 .6-.1 1.2-.4 1.7-.3.5-.6.9-1 1.2-.4.3-.9.6-1.4.8-.5.2-1.1.3-1.6.3-.8 0-1.6-.2-2.4-.5-.7-.3-1.4-.8-1.9-1.5l1.3-.9c.3.5.7.9 1.2 1.2.5.3 1.1.4 1.8.4.3 0 .7-.1 1-.2.3-.1.6-.3.9-.5.3-.2.5-.5.7-.8.2-.3.3-.7.3-1.1 0-.5-.1-.9-.3-1.2-.2-.3-.5-.6-.8-.8-.3-.2-.7-.4-1.1-.5-.4-.1-.8-.3-1.3-.4-.4-.1-.9-.3-1.3-.5s-.8-.4-1.1-.7c-.3-.3-.6-.6-.8-1-.2-.4-.3-.9-.3-1.6 0-.6.1-1.2.4-1.7.2-.5.6-.9 1-1.2.4-.3.9-.6 1.4-.7.5-.2 1.1-.2 1.6-.2.8 0 1.5.1 2.1.4.6.2 1.2.7 1.7 1.3l-1.2 1.1zm4.2-2.3h1.4v5.9h7.3v-5.9h1.4v13.5h-1.4v-6.3h-7.3v6.3H423v-13.5zM83.9 219H80v-38.1h23v3.5H83.9v13h17.8v3.6H83.9v18zm58.8-19.1c0-2.2-.4-4.3-1.1-6.3-.7-2-1.8-3.7-3.1-5.3-1.3-1.5-3-2.7-4.9-3.6-1.9-.9-4.1-1.3-6.6-1.3-2.4 0-4.6.4-6.6 1.3-1.9.9-3.6 2.1-4.9 3.6-1.3 1.5-2.4 3.3-3.1 5.3-.7 2-1.1 4.1-1.1 6.3s.4 4.3 1.1 6.3c.7 2 1.8 3.7 3.1 5.3 1.3 1.5 3 2.7 4.9 3.6 1.9.9 4.1 1.3 6.6 1.3 2.4 0 4.6-.4 6.6-1.3 1.9-.9 3.6-2.1 4.9-3.6 1.3-1.5 2.4-3.3 3.1-5.3.7-2 1.1-4.1 1.1-6.3zm4.2 0c0 2.9-.5 5.6-1.5 8-1 2.4-2.4 4.6-4.2 6.3-1.8 1.8-3.9 3.2-6.3 4.2s-5.1 1.5-7.9 1.5c-2.8 0-5.5-.5-7.9-1.5-2.4-1-4.5-2.4-6.3-4.2-1.8-1.8-3.2-3.9-4.2-6.3s-1.5-5.1-1.5-8c0-2.9.5-5.6 1.5-8 1-2.4 2.4-4.6 4.2-6.3 1.8-1.8 3.9-3.2 6.3-4.2s5.1-1.5 7.9-1.5c2.8 0 5.5.5 7.9 1.5 2.4 1 4.5 2.4 6.3 4.2 1.8 1.8 3.2 3.9 4.2 6.3 1 2.5 1.5 5.1 1.5 8zm35 13.3h.1v-32.3h3.9V219H181l-22.7-32.6h-.1V219h-3.9v-38.1h4.9l22.7 32.3zm17.4 2.3h7.5c2.9 0 5.4-.4 7.6-1.3 2.1-.9 3.9-2 5.3-3.5s2.5-3.1 3.2-5c.7-1.9 1-3.8 1-5.7 0-2-.3-3.9-1-5.7-.7-1.9-1.7-3.5-3.2-5-1.4-1.5-3.2-2.6-5.3-3.5-2.1-.9-4.7-1.3-7.6-1.3h-7.5v31zm-3.9-34.6H208c2.4 0 4.8.4 7.1 1.2 2.4.8 4.5 2 6.5 3.6 1.9 1.6 3.5 3.6 4.7 6 1.2 2.4 1.8 5.2 1.8 8.3 0 3.2-.6 6-1.8 8.4-1.2 2.4-2.7 4.4-4.7 6-1.9 1.6-4.1 2.8-6.5 3.6-2.4.8-4.8 1.2-7.1 1.2h-12.7v-38.3h.1zm57.9 34.6h7.5c2.9 0 5.4-.4 7.6-1.3 2.1-.9 3.9-2 5.3-3.5s2.5-3.1 3.2-5c.7-1.9 1-3.8 1-5.7 0-2-.3-3.9-1-5.7-.7-1.9-1.7-3.5-3.2-5-1.4-1.5-3.2-2.6-5.3-3.5-2.1-.9-4.7-1.3-7.6-1.3h-7.5v31zm-3.9-34.6h12.7c2.4 0 4.8.4 7.1 1.2 2.4.8 4.5 2 6.5 3.6 1.9 1.6 3.5 3.6 4.7 6 1.2 2.4 1.8 5.2 1.8 8.3 0 3.2-.6 6-1.8 8.4-1.2 2.4-2.7 4.4-4.7 6-1.9 1.6-4.1 2.8-6.5 3.6-2.4.8-4.8 1.2-7.1 1.2h-12.7v-38.3zm67.5 23.9c0 1.6-.2 3.3-.6 5-.4 1.8-1.1 3.4-2.1 4.9-1 1.5-2.5 2.8-4.3 3.7-1.8 1-4.1 1.5-7 1.5-2.9 0-5.2-.5-7-1.5-1.8-1-3.2-2.2-4.3-3.7-1-1.5-1.8-3.2-2.1-4.9-.4-1.8-.6-3.5-.6-5v-23.9h3.9v23.5c0 1.8.2 3.4.5 4.7.4 1.3.8 2.4 1.4 3.3.6.9 1.3 1.6 2 2.1s1.5.9 2.2 1.2 1.4.5 2.1.6c.7.1 1.3.1 1.8.1s1.1 0 1.8-.1 1.4-.3 2.2-.6c.7-.3 1.5-.7 2.2-1.2.7-.5 1.4-1.2 2-2.1.6-.9 1.1-2 1.4-3.3.4-1.3.5-2.9.5-4.7v-23.5h3.9v23.9h.1zm25.5 10.7h17.8v3.5h-21.7v-38.1h3.9v34.6zm30.2-10.1h16.5l-8.2-20.1-8.3 20.1zm-5.7 13.6h-4.5l16.6-38.2h3.8l16.6 38.2h-4.5l-4.2-10h-19.5l-4.3 10zm67.1-6c-.6 1-1.4 1.9-2.4 2.8-1 .9-2 1.6-3.3 2.2-1.2.6-2.5 1.1-4 1.5-1.4.4-2.9.5-4.5.5-2.8 0-5.5-.5-7.9-1.5-2.4-1-4.5-2.4-6.3-4.2-1.8-1.8-3.2-3.9-4.2-6.3s-1.5-5.1-1.5-8c0-2.9.5-5.6 1.5-8 1-2.4 2.4-4.6 4.2-6.3 1.8-1.8 3.9-3.2 6.3-4.2s5.1-1.5 7.9-1.5c2.4 0 4.7.5 7.1 1.4 2.4.9 4.4 2.5 6.1 4.6l-3.4 2.5c-.4-.6-.9-1.2-1.6-1.8-.7-.6-1.5-1.1-2.3-1.6-.9-.5-1.8-.8-2.8-1.1-1-.3-2-.4-3-.4-2.4 0-4.6.4-6.6 1.3-1.9.9-3.6 2.1-4.9 3.6-1.3 1.5-2.4 3.3-3.1 5.3-.7 2-1.1 4.1-1.1 6.3s.4 4.3 1.1 6.3c.7 2 1.8 3.7 3.1 5.3 1.3 1.5 3 2.7 4.9 3.6 1.9.9 4.1 1.3 6.6 1.3 1 0 2-.1 3-.3 1-.2 2-.5 2.9-.9 1-.4 1.9-1 2.7-1.8.8-.7 1.6-1.7 2.3-2.8l3.2 2.2z"/></svg>