<svg version="1.1" id="Layer_1" xmlns="http://www.w3.org/2000/svg" xmlns:xlink="http://www.w3.org/1999/xlink" x="0" y="0" viewBox="0 0 454 260" xml:space="preserve"><style>.st3{fill:#231f20}</style><path d="M390.9 0H20c11.1 0 20.2 9.1 20.2 20.2v130h.2c-.2 1-.3 2-.3 3v86.7c0 11.1 9.1 20.2 20.2 20.2h333.3c11.1 0 20.2-9.1 20.2-20.2v-86.7c0-1-.1-2-.3-3h.3v-130C413.8 9.1 422.9 0 434 0h-43.1z" fill="#fff"/><defs><path id="SVGID_1_" d="M79.9 40h294.3v180H79.9z"/></defs><clipPath id="SVGID_2_"><use xlink:href="#SVGID_1_" overflow="visible"/></clipPath><path clip-path="url(#SVGID_2_)" fill="#a7a9ac" d="M373.4 142.4H79.9v-1.2h293.5v1.2z"/><path class="st3" d="M261.7 42.1l-14 55h-.2l-17.4-55H213l-17.5 53.6h-.2L182 42.1h-28.5v50.6c0 2.6-.4 5-1.2 7.2-.8 2.2-2 4.1-3.5 5.7-1.5 1.6-3.3 2.9-5.3 3.8-2.1.9-4.3 1.4-6.7 1.4-2.4 0-4.7-.5-6.8-1.4-2.1-.9-3.9-2.2-5.4-3.8-1.5-1.6-2.7-3.5-3.5-5.7-.8-2.2-1.2-4.6-1.2-7.2V42.1h-18.4v51.4c0 5 .7 9.5 2.2 13.7 1.5 4.2 3.7 7.8 6.7 10.9 3 3.1 6.6 5.5 11 7.2 4.4 1.7 9.5 2.6 15.3 2.6 5.7 0 10.8-.9 15.2-2.6 4.4-1.7 8.1-4.1 11-7.2 2.9-3.1 5.2-6.7 6.7-10.9s2.2-8.7 2.2-13.7V75.7l14.8 50h15.8l18.4-57.8h.2l18.4 57.8h16.4l24.4-83.6h-18.5z"/><path d="M281.7 83.9c0 3.9.6 7.5 1.8 10.8 1.2 3.3 3 6.1 5.3 8.5 2.3 2.4 5 4.3 8.2 5.6 3.2 1.3 6.8 2 10.7 2 3.9 0 7.5-.7 10.7-2 3.2-1.3 5.9-3.2 8.2-5.6 2.3-2.4 4-5.2 5.3-8.5 1.2-3.3 1.8-6.9 1.8-10.8 0-3.9-.6-7.4-1.8-10.7-1.2-3.3-3-6.2-5.3-8.6-2.3-2.4-5-4.3-8.2-5.6-3.2-1.3-6.7-2-10.7-2-3.9 0-7.5.7-10.7 2-3.2 1.3-5.9 3.2-8.2 5.6-2.3 2.4-4 5.3-5.3 8.6-1.2 3.3-1.8 6.9-1.8 10.7zm-19.1 0c0-6.7 1.1-12.7 3.4-18.2 2.2-5.4 5.4-10 9.4-13.9 4-3.8 8.8-6.8 14.3-8.8 5.5-2 11.5-3.1 18.1-3.1 6.5 0 12.6 1 18.1 3.1 5.5 2 10.3 5 14.3 8.8 4 3.8 7.1 8.4 9.4 13.9 2.2 5.4 3.4 11.5 3.4 18.2 0 6.7-1.1 12.8-3.4 18.2-2.2 5.4-5.4 10.1-9.4 13.9-4 3.8-8.8 6.8-14.3 8.8-5.5 2-11.5 3.1-18.1 3.1-6.5 0-12.6-1-18.1-3.1-5.5-2-10.3-5-14.3-8.8-4-3.8-7.1-8.4-9.4-13.9-2.3-5.4-3.4-11.5-3.4-18.2z" fill="#ffcf01"/><path class="st3" d="M88.1 162.9c0 .5-.1 1-.2 1.5s-.3 1-.6 1.5c-.3.4-.7.8-1.3 1.1-.5.3-1.2.4-2.1.4-.8 0-1.5-.1-2.1-.4-.5-.3-.9-.7-1.3-1.1s-.5-.9-.6-1.5c-.1-.5-.2-1-.2-1.5v-7H81v6.9c0 .5.1 1 .2 1.4.1.4.2.7.4 1 .2.3.4.5.6.6.2.2.4.3.7.4.2.1.4.1.6.2h1c.2 0 .4-.1.6-.2.2-.1.4-.2.7-.4l.6-.6c.2-.3.3-.6.4-1 .1-.4.2-.8.2-1.4v-6.9h1.1v7zm11.2 2.5h.1v-9.6h1.1v11.3h-1.4l-6.7-9.6v9.6h-1.2v-11.3h1.5l6.6 9.6zm5.7 1.7h-1.2v-11.3h1.2v11.3zm6.6-1.7l3.7-9.6h1.2l-4.4 11.3H111l-4.3-11.3h1.3l3.6 9.6zm7.8.6h6v1.1h-7.1v-11.3h6.9v1.1h-5.8v3.8h5.4v1.1h-5.4v4.2zm9.7-5.2h2c.5 0 .9-.1 1.3-.2s.6-.2.8-.4c.2-.2.4-.4.5-.6.1-.2.1-.5.1-.8 0-.3 0-.5-.1-.8-.1-.2-.2-.4-.5-.6-.2-.2-.5-.3-.8-.4-.4-.1-.8-.2-1.3-.2h-2v4zm0 6.3H128v-11.2h3.5c1.1 0 2 .2 2.7.7.7.5 1 1.2 1 2.3 0 .8-.2 1.4-.7 2-.5.5-1.2.8-2.1.9l3.2 5.3h-1.4l-3.1-5.2h-1.9v5.2h-.1zm13.8-9.4c-.5-.7-1.2-1.1-2.2-1.1-.3 0-.6 0-.9.1-.3.1-.5.2-.8.4-.2.2-.4.4-.5.6-.1.3-.2.6-.2.9 0 .5.1.9.4 1.2.3.3.6.5 1.1.7.4.2.9.3 1.4.5.5.1 1 .3 1.4.6.4.2.8.6 1.1.9.3.4.4.9.4 1.6 0 .5-.1 1-.3 1.4-.2.4-.5.7-.9 1-.4.3-.8.5-1.2.6-.4.1-.9.2-1.3.2-.7 0-1.3-.1-2-.4-.6-.3-1.1-.7-1.6-1.3l1-.7c.2.4.6.7 1 1 .4.2.9.4 1.5.4.3 0 .6 0 .9-.1.3-.1.5-.2.8-.4l.6-.6c.1-.3.2-.5.2-.9s-.1-.7-.2-1c-.2-.3-.4-.5-.7-.7-.3-.2-.6-.3-.9-.4-.3-.1-.7-.2-1.1-.3-.4-.1-.7-.2-1.1-.4-.3-.1-.7-.3-.9-.6-.3-.2-.5-.5-.6-.9-.2-.3-.2-.8-.2-1.3s.1-1 .3-1.4c.2-.4.5-.7.8-1 .3-.3.7-.5 1.2-.6.4-.1.9-.2 1.3-.2.6 0 1.2.1 1.7.3.5.2 1 .6 1.4 1.1l-.9.8zm4.9 9.4h-1.1v-11.3h1.1v11.3zm7 0h-1.2v-10.2h-3.7v-1.1h8.6v1.1h-3.7v10.2zm10 0h-1.1v-4.9l-4.2-6.4h1.4l3.4 5.3 3.3-5.3h1.4l-4.2 6.4v4.9zm19.5-5.6c0-.6-.1-1.3-.3-1.8-.2-.6-.5-1.1-.9-1.5-.4-.4-.9-.8-1.5-1.1-.6-.3-1.2-.4-1.9-.4s-1.4.1-1.9.4c-.6.3-1.1.6-1.5 1.1-.4.4-.7 1-.9 1.5-.2.6-.3 1.2-.3 1.8 0 .6.1 1.3.3 1.8.2.6.5 1.1.9 1.5.4.4.9.8 1.5 1.1.6.3 1.2.4 1.9.4s1.4-.1 1.9-.4c.6-.3 1.1-.6 1.5-1.1.4-.4.7-1 .9-1.5.2-.6.3-1.2.3-1.8zm1.2 0c0 .9-.1 1.6-.4 2.4-.3.7-.7 1.3-1.2 1.9-.5.5-1.1.9-1.9 1.2-.7.3-1.5.4-2.3.4-.8 0-1.6-.1-2.3-.4-.7-.3-1.3-.7-1.9-1.2-.5-.5-.9-1.1-1.2-1.9-.3-.7-.4-1.5-.4-2.4 0-.9.1-1.6.4-2.4.3-.7.7-1.3 1.2-1.9.5-.5 1.1-.9 1.9-1.2.7-.3 1.5-.4 2.3-.4.8 0 1.6.1 2.3.4.7.3 1.3.7 1.9 1.2.5.5.9 1.1 1.2 1.9.3.7.4 1.5.4 2.4zm3.3 5.6h-1.2v-11.3h6.8v1.1h-5.6v3.8h5.2v1.1h-5.2v5.3zm14.7-1.6h.1l2.8-9.7h1.3l2.9 9.7 2.7-9.7h1.2l-3.3 11.3h-1.3l-2.8-9.6h-.1l-2.8 9.6h-1.3l-3.3-11.3h1.2l2.7 9.7zm14.1 1.6h-1.2v-11.3h1.2v11.3zm8.6-9.4c-.5-.7-1.2-1.1-2.2-1.1-.3 0-.6 0-.9.1-.3.1-.5.2-.8.4-.2.2-.4.4-.5.6-.1.3-.2.6-.2.9 0 .5.1.9.4 1.2.3.3.6.5 1.1.7.4.2.9.3 1.4.5.5.1 1 .3 1.4.6.4.2.8.6 1.1.9.3.4.4.9.4 1.6 0 .5-.1 1-.3 1.4-.2.4-.5.7-.9 1-.4.3-.7.5-1.2.6-.4.1-.9.2-1.3.2-.7 0-1.3-.1-2-.4-.6-.3-1.1-.7-1.6-1.3l1-.7c.2.4.6.7 1 1 .4.2.9.4 1.5.4.3 0 .6 0 .9-.1.3-.1.5-.2.8-.4l.6-.6c.1-.3.2-.5.2-.9s-.1-.7-.2-1c-.2-.3-.4-.5-.7-.7-.3-.2-.6-.3-.9-.4-.3-.1-.7-.2-1.1-.3-.4-.1-.7-.2-1.1-.4-.3-.1-.7-.3-.9-.6-.3-.2-.5-.5-.7-.9-.2-.3-.2-.8-.2-1.3s.1-1 .3-1.4c.2-.4.5-.7.8-1 .3-.3.7-.5 1.2-.6.4-.1.9-.2 1.3-.2.6 0 1.2.1 1.7.3.5.2 1 .6 1.4 1.1l-.8.8zm13 7.6c-.2.3-.4.6-.7.8-.3.3-.6.5-1 .7-.4.2-.7.3-1.2.4-.4.1-.9.2-1.3.2-.8 0-1.6-.1-2.3-.4-.7-.3-1.3-.7-1.9-1.2-.5-.5-.9-1.1-1.2-1.9-.3-.7-.4-1.5-.4-2.4 0-.9.1-1.6.4-2.4.3-.7.7-1.3 1.2-1.9.5-.5 1.1-.9 1.9-1.2.7-.3 1.5-.4 2.3-.4.7 0 1.4.1 2.1.4.7.3 1.3.7 1.8 1.4l-1 .7c-.1-.2-.3-.4-.5-.5-.2-.2-.4-.3-.7-.5-.3-.1-.5-.2-.8-.3-.3-.1-.6-.1-.9-.1-.7 0-1.4.1-1.9.4-.6.3-1.1.6-1.5 1.1-.4.4-.7 1-.9 1.5-.2.6-.3 1.2-.3 1.8 0 .6.1 1.3.3 1.8.2.6.5 1.1.9 1.5.4.4.9.8 1.5 1.1.6.3 1.2.4 1.9.4.3 0 .6 0 .9-.1.3-.1.6-.1.9-.3.3-.1.5-.3.8-.5.2-.2.5-.5.7-.8l.9.7zm11.9-3.8c0-.6-.1-1.3-.3-1.8-.2-.6-.5-1.1-.9-1.5-.4-.4-.9-.8-1.5-1.1-.6-.3-1.2-.4-1.9-.4s-1.4.1-1.9.4c-.6.3-1.1.6-1.5 1.1-.4.4-.7 1-.9 1.5-.2.6-.3 1.2-.3 1.8 0 .6.1 1.3.3 1.8.2.6.5 1.1.9 1.5.4.4.9.8 1.5 1.1.6.3 1.2.4 1.9.4s1.4-.1 1.9-.4c.6-.3 1.1-.6 1.5-1.1.4-.4.7-1 .9-1.5.2-.6.3-1.2.3-1.8zm1.3 0c0 .9-.1 1.6-.4 2.4-.3.7-.7 1.3-1.2 1.9-.5.5-1.1.9-1.9 1.2-.7.3-1.5.4-2.3.4-.8 0-1.6-.1-2.3-.4-.7-.3-1.3-.7-1.9-1.2-.5-.5-.9-1.1-1.2-1.9-.3-.7-.4-1.5-.4-2.4 0-.9.1-1.6.4-2.4.3-.7.7-1.3 1.2-1.9.5-.5 1.1-.9 1.9-1.2.7-.3 1.5-.4 2.3-.4.8 0 1.6.1 2.3.4.7.3 1.3.7 1.9 1.2.5.5.9 1.1 1.2 1.9.2.7.4 1.5.4 2.4zm10.6 3.9h.1v-9.6h1.1v11.3h-1.4l-6.7-9.6v9.6h-1.2v-11.3h1.5l6.6 9.6zm9.8-7.7c-.5-.7-1.2-1.1-2.2-1.1-.3 0-.6 0-.9.1-.3.1-.5.2-.8.4-.2.2-.4.4-.5.6-.1.3-.2.6-.2.9 0 .5.1.9.4 1.2.3.3.6.5 1.1.7.4.2.9.3 1.4.5.5.1 1 .3 1.4.6.4.2.8.6 1.1.9.3.4.4.9.4 1.6 0 .5-.1 1-.3 1.4-.2.4-.5.7-.9 1-.4.3-.8.5-1.2.6-.4.1-.9.2-1.3.2-.7 0-1.3-.1-2-.4-.6-.3-1.1-.7-1.6-1.3l1-.7c.2.4.6.7 1 1 .4.2.9.4 1.5.4.3 0 .6 0 .9-.1.3-.1.5-.2.8-.4l.6-.6c.1-.3.2-.5.2-.9s-.1-.7-.2-1c-.2-.3-.4-.5-.7-.7-.3-.2-.6-.3-.9-.4-.3-.1-.7-.2-1.1-.3-.4-.1-.7-.2-1.1-.4-.3-.1-.7-.3-.9-.6-.3-.2-.5-.5-.7-.9-.2-.3-.2-.8-.2-1.3s.1-1 .3-1.4c.2-.4.5-.7.8-1 .3-.3.7-.5 1.2-.6.4-.1.9-.2 1.3-.2.6 0 1.2.1 1.7.3.5.2 1 .6 1.4 1.1l-.8.8zm5.1 9.4h-1.2v-11.3h1.2v11.3zm11.4-1.7h.1v-9.6h1.1v11.3h-1.4l-6.7-9.6h-.1v9.6h-1.1v-11.3h1.4l6.7 9.6zm18.5-3.9c0-.6-.1-1.3-.3-1.8-.2-.6-.5-1.1-.9-1.5-.4-.4-.9-.8-1.5-1.1-.6-.3-1.2-.4-1.9-.4s-1.4.1-1.9.4c-.6.3-1.1.6-1.5 1.1-.4.4-.7 1-.9 1.5-.2.6-.3 1.2-.3 1.8 0 .6.1 1.3.3 1.8.2.6.5 1.1.9 1.5.4.4.9.8 1.5 1.1.6.3 1.2.4 1.9.4s1.4-.1 1.9-.4c.6-.3 1.1-.6 1.5-1.1.4-.4.7-1 .9-1.5.2-.6.3-1.2.3-1.8zm1.3 0c0 .9-.1 1.6-.4 2.4-.3.7-.7 1.3-1.2 1.9-.5.5-1.1.9-1.9 1.2-.7.3-1.5.4-2.3.4-.8 0-1.6-.1-2.3-.4-.7-.3-1.3-.7-1.9-1.2-.5-.5-.9-1.1-1.2-1.9-.3-.7-.4-1.5-.4-2.4 0-.9.1-1.6.4-2.4.3-.7.7-1.3 1.2-1.9.5-.5 1.1-.9 1.9-1.2.7-.3 1.5-.4 2.3-.4.8 0 1.6.1 2.3.4.7.3 1.3.7 1.9 1.2.5.5.9 1.1 1.2 1.9.2.7.4 1.5.4 2.4zm7.8-3.8c-.5-.7-1.2-1.1-2.2-1.1-.3 0-.6 0-.9.1-.3.1-.5.2-.8.4-.2.2-.4.4-.5.6-.1.3-.2.6-.2.9 0 .5.1.9.4 1.2.3.3.6.5 1.1.7.4.2.9.3 1.4.5.5.1 1 .3 1.4.6.4.2.8.6 1.1.9.3.4.4.9.4 1.6 0 .5-.1 1-.3 1.4-.2.4-.5.7-.9 1-.4.3-.8.5-1.2.6-.4.1-.9.2-1.3.2-.7 0-1.3-.1-2-.4-.6-.3-1.1-.7-1.6-1.3l1-.7c.2.4.6.7 1 1 .4.2.9.4 1.5.4.3 0 .6 0 .9-.1.3-.1.5-.2.8-.4l.6-.6c.1-.3.2-.5.2-.9s-.1-.7-.2-1c-.2-.3-.4-.5-.7-.7-.3-.2-.6-.3-.9-.4-.3-.1-.7-.2-1.1-.3-.4-.1-.7-.2-1.1-.4-.3-.1-.7-.3-.9-.6-.3-.2-.5-.5-.7-.9-.2-.3-.2-.8-.2-1.3s.1-1 .3-1.4c.2-.4.5-.7.8-1 .3-.3.7-.5 1.2-.6.4-.1.9-.2 1.3-.2.6 0 1.2.1 1.7.3.5.2 1 .6 1.4 1.1l-.8.8zm3.8-1.9h1.1v4.9h6.2v-4.9h1.1v11.3H328v-5.3h-6.2v5.3h-1.1v-11.3zm12.9 4.9h.1l5.3-4.9h1.6l-5.6 5.1 6 6.2h-1.7l-5.5-5.8h-.2v5.8h-1.2v-11.3h1.2v4.9zm18.8.8c0-.6-.1-1.3-.3-1.8-.2-.6-.5-1.1-.9-1.5-.4-.4-.9-.8-1.5-1.1-.6-.3-1.2-.4-1.9-.4s-1.4.1-1.9.4c-.6.3-1.1.6-1.5 1.1-.4.4-.7 1-.9 1.5-.2.6-.3 1.2-.3 1.8 0 .6.1 1.3.3 1.8.2.6.5 1.1.9 1.5.4.4.9.8 1.5 1.1.6.3 1.2.4 1.9.4s1.4-.1 1.9-.4c.6-.3 1.1-.6 1.5-1.1.4-.4.7-1 .9-1.5.2-.6.3-1.2.3-1.8zm1.2 0c0 .9-.1 1.6-.4 2.4-.3.7-.7 1.3-1.2 1.9-.5.5-1.1.9-1.9 1.2-.7.3-1.5.4-2.3.4-.8 0-1.6-.1-2.3-.4-.7-.3-1.3-.7-1.9-1.2-.5-.5-.9-1.1-1.2-1.9-.3-.7-.4-1.5-.4-2.4 0-.9.1-1.6.4-2.4.3-.7.7-1.3 1.2-1.9.5-.5 1.1-.9 1.9-1.2.7-.3 1.5-.4 2.3-.4.8 0 1.6.1 2.3.4.7.3 1.3.7 1.9 1.2.5.5.9 1.1 1.2 1.9.3.7.4 1.5.4 2.4zm7.9-3.8c-.5-.7-1.2-1.1-2.2-1.1-.3 0-.6 0-.9.1-.3.1-.5.2-.8.4-.2.2-.4.4-.5.6-.1.3-.2.6-.2.9 0 .5.1.9.4 1.2.3.3.6.5 1.1.7.4.2.9.3 1.4.5.5.1 1 .3 1.4.6.4.2.8.6 1.1.9.3.4.4.9.4 1.6 0 .5-.1 1-.3 1.4-.2.4-.5.7-.9 1-.4.3-.8.5-1.2.6-.4.1-.9.2-1.3.2-.7 0-1.3-.1-2-.4-.6-.3-1.1-.7-1.6-1.3l1-.7c.2.4.6.7 1 1 .4.2.9.4 1.5.4.3 0 .6 0 .9-.1.3-.1.5-.2.8-.4l.6-.6c.1-.3.2-.5.2-.9s-.1-.7-.2-1c-.2-.3-.4-.5-.7-.7-.3-.2-.6-.3-.9-.4-.3-.1-.7-.2-1.1-.3-.4-.1-.7-.2-1.1-.4-.3-.1-.7-.3-.9-.6-.3-.2-.5-.5-.7-.9-.2-.3-.2-.8-.2-1.3s.1-1 .3-1.4c.2-.4.5-.7.8-1 .3-.3.7-.5 1.2-.6.4-.1.9-.2 1.3-.2.6 0 1.2.1 1.7.3.5.2 1 .6 1.4 1.1l-.8.8zm3.5-1.9h1.1v4.9h6.1v-4.9h1.2v11.3h-1.2v-5.3h-6.1v5.3H365v-11.3zM84.1 218.9h-4.2v-41.5H105v3.9H84.1v14.1h19.4v3.9H84.1v19.6zm64-20.7c0-2.4-.4-4.7-1.2-6.8-.8-2.2-1.9-4.1-3.4-5.7-1.5-1.6-3.3-3-5.4-3.9-2.1-1-4.5-1.5-7.2-1.5s-5 .5-7.2 1.5c-2.1 1-3.9 2.3-5.4 3.9-1.5 1.6-2.6 3.6-3.4 5.7-.8 2.2-1.2 4.5-1.2 6.8 0 2.4.4 4.7 1.2 6.8.8 2.2 1.9 4.1 3.4 5.7 1.5 1.6 3.3 3 5.4 3.9 2.1 1 4.5 1.5 7.2 1.5s5-.5 7.2-1.5c2.1-1 3.9-2.3 5.4-3.9 1.5-1.6 2.6-3.6 3.4-5.7.8-2.2 1.2-4.4 1.2-6.8zm4.6 0c0 3.2-.5 6.1-1.6 8.7-1.1 2.7-2.6 5-4.5 6.9-1.9 1.9-4.2 3.5-6.9 4.5-2.6 1.1-5.5 1.6-8.6 1.6-3.1 0-6-.5-8.6-1.6-2.6-1.1-4.9-2.6-6.9-4.5-1.9-1.9-3.5-4.2-4.5-6.9-1.1-2.7-1.6-5.6-1.6-8.7 0-3.2.5-6.1 1.6-8.7 1.1-2.7 2.6-5 4.5-6.9 1.9-1.9 4.2-3.5 6.9-4.5 2.6-1.1 5.5-1.6 8.6-1.6 3.1 0 6 .5 8.6 1.6 2.6 1.1 4.9 2.6 6.9 4.5 1.9 1.9 3.5 4.2 4.5 6.9 1 2.6 1.6 5.5 1.6 8.7zm19.2-4.2l11.7-16.6h5.3l-14.1 19.7 15.2 21.8h-5.6l-12.6-18.8-12.8 18.8h-5.2l15.2-21.8-14.1-19.7h5.7l11.3 16.6zm73.9 18.4c-.7 1.1-1.6 2.1-2.6 3-1 .9-2.2 1.8-3.5 2.4-1.3.7-2.8 1.2-4.3 1.6-1.5.4-3.2.6-4.9.6-3.1 0-6-.5-8.6-1.6-2.6-1.1-4.9-2.6-6.9-4.5-1.9-1.9-3.5-4.2-4.5-6.9-1.1-2.7-1.6-5.6-1.6-8.7 0-3.2.5-6.1 1.6-8.7 1.1-2.7 2.6-5 4.5-6.9 1.9-1.9 4.2-3.5 6.9-4.5 2.6-1.1 5.5-1.6 8.6-1.6 2.6 0 5.2.5 7.7 1.5 2.6 1 4.8 2.7 6.6 5l-3.7 2.8c-.4-.7-1-1.3-1.8-2-.7-.7-1.6-1.3-2.6-1.8s-2-.9-3.1-1.2c-1.1-.3-2.2-.5-3.3-.5-2.7 0-5 .5-7.2 1.5-2.1 1-3.9 2.3-5.4 3.9-1.5 1.6-2.6 3.6-3.4 5.7-.8 2.2-1.2 4.5-1.2 6.8 0 2.4.4 4.7 1.2 6.8.8 2.2 1.9 4.1 3.4 5.7 1.5 1.6 3.3 3 5.4 3.9 2.1 1 4.5 1.5 7.2 1.5 1.1 0 2.2-.1 3.3-.3 1.1-.2 2.1-.5 3.2-1 1-.5 2-1.1 2.9-1.9.9-.8 1.8-1.8 2.6-3l3.5 2.4zm11 6.5h-4.2v-41.5h4.2v41.5zm24.2 0h-4.2v-37.6h-13.9v-3.9H295v3.9h-14v37.6zm25.5 0h-4.3v-41.5h4.3v41.5z"/><defs><path id="SVGID_3_" d="M79.9 40h294.3v180H79.9z"/></defs><clipPath id="SVGID_4_"><use xlink:href="#SVGID_3_" overflow="visible"/></clipPath><path d="M319.8 215.1h22.3v3.8h-26.5v-41.5h25.8v3.9h-21.6v14.1H340v3.9h-20.2v15.8zm49.9-30.8c-1.8-2.7-4.5-4-8-4-1.1 0-2.2.1-3.2.4-1.1.3-2 .7-2.8 1.4-.8.6-1.5 1.4-2 2.3-.5 1-.8 2.1-.8 3.4 0 1.9.5 3.3 1.6 4.4 1.1 1 2.4 1.9 3.9 2.6 1.6.7 3.3 1.3 5.1 1.8 1.9.5 3.6 1.2 5.1 2.1 1.6.9 2.9 2 3.9 3.5 1.1 1.4 1.6 3.4 1.6 5.9 0 1.9-.4 3.6-1.2 5.1-.8 1.5-1.9 2.8-3.2 3.8-1.3 1-2.8 1.8-4.4 2.3-1.6.5-3.3.8-4.9.8-2.5 0-5-.5-7.2-1.4-2.3-1-4.2-2.5-5.8-4.7l3.9-2.8c.9 1.5 2.1 2.8 3.7 3.7 1.6.9 3.5 1.4 5.7 1.4 1.1 0 2.1-.2 3.2-.5s2-.8 2.8-1.5c.8-.6 1.5-1.4 2.1-2.4.5-.9.8-2 .8-3.2 0-1.4-.3-2.6-.9-3.6-.6-1-1.4-1.8-2.4-2.4-1-.6-2.1-1.2-3.4-1.6-1.3-.4-2.6-.9-3.9-1.3-1.3-.4-2.7-.9-3.9-1.5-1.3-.5-2.4-1.2-3.4-2.1-1-.8-1.8-1.9-2.4-3.2-.6-1.3-.9-2.9-.9-4.8 0-2 .4-3.7 1.1-5.2.8-1.5 1.8-2.7 3.1-3.7s2.7-1.7 4.3-2.2c1.6-.5 3.2-.7 4.9-.7 2.3 0 4.5.4 6.4 1.1 1.9.7 3.7 2.1 5.3 3.9l-3.8 2.9z" clip-path="url(#SVGID_4_)" fill="#231f20"/></svg>